<?xml version='1.0' encoding='utf-8'?>
<svg xmlns="http://www.w3.org/2000/svg" width="9.5348mm" height="17.899mm" clip-rule="evenodd" fill-rule="evenodd" image-rendering="optimizeQuality" shape-rendering="geometricPrecision" text-rendering="geometricPrecision" version="1.0" viewBox="0 0 1530 2873">
 <defs>
  <style type="text/css">
   
    .fil1 {fill:none}
    .fil0 {fill:#2B2A29}
   
  </style>
 </defs>
    <path class="fil0" d="m414 2230c69-831-1166-1803 330-2192 930-241 971 714 456 1392-289 381-341 389-302 846-135-424-9-538 240-894 358-514 516-1431-360-1223-1423 337-117 1285-364 2071z"/>
   <path class="fil1" d="m414 2230c229-695-1058-1597 162-2071 1051-409 1113 635 593 1247-249 292-369 495-271 870"/>
    <path class="fil0" d="m390 2184c-5 163 502 147 435-14-7-16-7-14-11-32 41-12 81 36 94 69 126 324-883 79-518-23z"/>
   <path class="fil1" d="m390 2184c-179 180 549 196 481 23-9-22-33-61-57-69"/>
    <path class="fil0" d="m341 2230c32 211 2 170 406 159 41-1 73-93 91-125 130 348-731 355-497-34z"/>
   <path class="fil1" d="m341 2230c-79 277 81 193 388 206 96 4 109-106 109-172"/>
    <path class="fil0" d="m305 2390c94 131 67 83 117 182 353 4 355-21 452-296 57 159 27 316-148 386-333 131-397-25-421-272z"/>
   <path class="fil1" d="m305 2390c12 37 85 218 87 227 135 26 390 19 438-110 51-137 44-86 44-231"/>
    <path class="fil0" d="m341 2550c256 218-30 235 458 131 27-74 40-129 63-199 67 20 43 256 4 280-367 227-471 79-525-212z"/>
   <path class="fil1" d="m341 2550c143 188-26 343 497 172 13-48 56-204 24-240"/>
    <path class="fil0" d="m474 2321c18-143 177-900 73-1232-259-50-446-170-192-256 152-52 235 21 273 159 66 2 136 0 200-8 109-200 267-389 332-162 53 188-94 269-286 287-144 399-277 1124-303 1258 14-394 44-763 155-1149 8-29 22-65 39-105-39-1-78-4-117-8 44 419-153 1152-174 1216zm14-1342c-24-25-53-41-89-45-6 2-14 6-18 11 18 14 57 26 107 34zm-109-31v1-1zm556 15c78-23 125-61 105-117-34 3-70 47-105 117zm110-117h2-2z"/>
   <path class="fil1" d="m474 2321c-1-48 387-1423-72-1441-92-4-251 216 472 161 504-39 59-843-206 647-49 278-74 403-97 679"/>
</svg>